name rise30.9205peak61.366fall85.3838.mot
datacolumns 19
datarows 26
range 14.27828200000000 14.31994300000000
endheader
time	ground_force1_vx	ground_force1_vy	ground_force1_vz	ground_force1_px	ground_force1_py	ground_force1_pz	ground_force2_vx	ground_force2_vy	ground_force2_vz	ground_force2_px	ground_force2_py	ground_force2_pz	ground_torque1_x	ground_torque1_y	ground_torque1_z	ground_torque2_x	ground_torque2_y	ground_torque2_z	
14.27828200000000	-56.32069000000000	830.08632399999999	55.71077900000000	0.13385800000000	0.00000000000000	0.10070000000000	-5.75551000000000	31.75469300000000	7.28622300000000	0.34368700000000	0.00000000000000	-0.07121400000000	0.00000000000000	24.03043500000000	0.00000000000000	0.00000000000000	4.89970700000000	0.00000000000000	
14.27994600000000	-56.51432200000000	827.35653500000001	55.62187100000000	0.13335600000000	0.00000000000000	0.10066000000000	-6.58766200000000	37.70748200000000	8.43592500000000	0.35124500000000	0.00000000000000	-0.07155900000000	0.00000000000000	23.93280400000000	0.00000000000000	0.00000000000000	5.74554400000000	0.00000000000000	
14.28162400000000	-56.71437000000000	824.49958600000002	55.50855600000000	0.13287600000000	0.00000000000000	0.10061600000000	-7.35181700000000	43.71771900000000	9.53032300000000	0.35834400000000	0.00000000000000	-0.07188100000000	0.00000000000000	23.83383900000000	0.00000000000000	0.00000000000000	6.56993400000000	0.00000000000000	
14.28328200000000	-56.92153300000000	821.51679200000001	55.37055600000000	0.13241800000000	0.00000000000000	0.10056700000000	-8.02400900000000	49.67886300000000	10.54096600000000	0.36502300000000	0.00000000000000	-0.07218400000000	0.00000000000000	23.73367100000000	0.00000000000000	0.00000000000000	7.35134300000000	0.00000000000000	
14.28494800000000	-57.13647600000000	818.40949499999999	55.20763700000000	0.13198000000000	0.00000000000000	0.10051300000000	-8.58585100000000	55.50459500000000	11.44572100000000	0.37131500000000	0.00000000000000	-0.07247200000000	0.00000000000000	23.63241900000000	0.00000000000000	0.00000000000000	8.07210700000000	0.00000000000000	
14.28661400000000	-57.35982700000000	815.17905099999996	55.01961400000000	0.13156200000000	0.00000000000000	0.10045300000000	-9.02518700000000	61.13296300000000	12.22963000000000	0.37724900000000	0.00000000000000	-0.07275000000000	0.00000000000000	23.53019400000000	0.00000000000000	0.00000000000000	8.71928300000000	0.00000000000000	
14.28828100000000	-57.59217600000000	811.82682100000000	54.80635200000000	0.13116500000000	0.00000000000000	0.10038900000000	-9.33613600000000	66.52787300000000	12.88504800000000	0.38284700000000	0.00000000000000	-0.07301900000000	0.00000000000000	23.42709400000000	0.00000000000000	0.00000000000000	9.28498500000000	0.00000000000000	
14.28995000000000	-57.83406200000000	808.35416099999998	54.56776100000000	0.13078600000000	0.00000000000000	0.10031900000000	-9.51862100000000	71.67823000000000	13.41116100000000	0.38813100000000	0.00000000000000	-0.07328200000000	0.00000000000000	23.32320600000000	0.00000000000000	0.00000000000000	9.76625000000000	0.00000000000000	
14.29161100000000	-58.08598000000000	804.76241600000003	54.30380100000000	0.13042500000000	0.00000000000000	0.10024400000000	-9.57749500000000	76.59515399999999	13.81302700000000	0.39311800000000	0.00000000000000	-0.07354100000000	0.00000000000000	23.21860800000000	0.00000000000000	0.00000000000000	10.16451900000000	0.00000000000000	
14.29327900000000	-58.34836500000000	801.05291099999999	54.01448100000000	0.13008000000000	0.00000000000000	0.10016300000000	-9.52142900000000	81.30785899999999	14.10029800000000	0.39782300000000	0.00000000000000	-0.07379800000000	0.00000000000000	23.11336300000000	0.00000000000000	0.00000000000000	10.48483900000000	0.00000000000000	
14.29494500000000	-58.62159900000000	797.22694100000001	53.69985900000000	0.12975200000000	0.00000000000000	0.10007700000000	-9.36167100000000	85.85876399999999	14.28578800000000	0.40226100000000	0.00000000000000	-0.07405400000000	0.00000000000000	23.00752300000000	0.00000000000000	0.00000000000000	10.73489500000000	0.00000000000000	
14.29661500000000	-58.90599900000000	793.28576699999996	53.36003900000000	0.12943800000000	0.00000000000000	0.09998600000000	-9.11081600000000	90.29836100000000	14.38403500000000	0.40644400000000	0.00000000000000	-0.07431000000000	0.00000000000000	22.90112700000000	0.00000000000000	0.00000000000000	10.92399300000000	0.00000000000000	
14.29828100000000	-59.20181600000000	789.23060799999996	52.99517400000000	0.12913800000000	0.00000000000000	0.09988900000000	-8.78167500000000	94.68031999999999	14.40996200000000	0.41038200000000	0.00000000000000	-0.07456700000000	0.00000000000000	22.79420300000000	0.00000000000000	0.00000000000000	11.06207700000000	0.00000000000000	
14.29995400000000	-59.50923100000000	785.06263200000001	52.60546300000000	0.12885000000000	0.00000000000000	0.09978700000000	-8.38633500000000	99.05716300000000	14.37774400000000	0.41408600000000	0.00000000000000	-0.07482600000000	0.00000000000000	22.68676700000000	0.00000000000000	0.00000000000000	11.15886400000000	0.00000000000000	
14.30162000000000	-59.82835200000000	780.78295700000001	52.19115100000000	0.12857200000000	0.00000000000000	0.09968000000000	-7.93542100000000	103.47675700000001	14.29992700000000	0.41756400000000	0.00000000000000	-0.07508700000000	0.00000000000000	22.57882000000000	0.00000000000000	0.00000000000000	11.22313800000000	0.00000000000000	
14.30328400000000	-60.15921200000000	776.39263900000003	51.75252800000000	0.12830300000000	0.00000000000000	0.09956700000000	-7.43761300000000	107.97975500000000	14.18681500000000	0.42082500000000	0.00000000000000	-0.07535200000000	0.00000000000000	22.47035300000000	0.00000000000000	0.00000000000000	11.26224600000000	0.00000000000000	
14.30494600000000	-60.50176000000000	771.89267500000005	51.28992800000000	0.12804200000000	0.00000000000000	0.09944900000000	-6.89938800000000	112.59800600000000	14.04614500000000	0.42387700000000	0.00000000000000	-0.07561900000000	0.00000000000000	22.36134700000000	0.00000000000000	0.00000000000000	11.28178400000000	0.00000000000000	
14.30661100000000	-60.85586700000000	767.28399300000001	50.80372700000000	0.12778600000000	0.00000000000000	0.09932500000000	-6.32498000000000	117.35388800000000	13.88300000000000	0.42672600000000	0.00000000000000	-0.07589100000000	0.00000000000000	22.25176700000000	0.00000000000000	0.00000000000000	11.28548500000000	0.00000000000000	
14.30828500000000	-61.22131400000000	762.56745400000000	50.29434200000000	0.12753500000000	0.00000000000000	0.09919700000000	-5.71650900000000	122.26044300000000	13.69994300000000	0.42937900000000	0.00000000000000	-0.07616700000000	0.00000000000000	22.14157100000000	0.00000000000000	0.00000000000000	11.27526600000000	0.00000000000000	
14.30995100000000	-61.59779800000000	757.74384799999996	49.76223000000000	0.12728600000000	0.00000000000000	0.09906300000000	-5.07425700000000	127.32215700000000	13.49731000000000	0.43184300000000	0.00000000000000	-0.07644700000000	0.00000000000000	22.03070300000000	0.00000000000000	0.00000000000000	11.25140700000000	0.00000000000000	
14.31162300000000	-61.98492300000000	752.81389200000001	49.20788800000000	0.12703800000000	0.00000000000000	0.09892500000000	-4.39702300000000	132.53620900000001	13.27361700000000	0.43412400000000	0.00000000000000	-0.07673100000000	0.00000000000000	21.91910000000000	0.00000000000000	0.00000000000000	11.21283000000000	0.00000000000000	
14.31327700000000	-62.38220400000000	747.77823200000000	48.63184500000000	0.12678900000000	0.00000000000000	0.09878100000000	-3.68252800000000	137.89400900000001	13.02603000000000	0.43622800000000	0.00000000000000	-0.07701900000000	0.00000000000000	21.80668800000000	0.00000000000000	0.00000000000000	11.15743500000000	0.00000000000000	
14.31494800000000	-62.78906300000000	742.63743999999997	48.03466900000000	0.12653700000000	0.00000000000000	0.09863300000000	-2.92783400000000	143.38285700000000	12.75084400000000	0.43815900000000	0.00000000000000	-0.07731100000000	0.00000000000000	21.69338100000000	0.00000000000000	0.00000000000000	11.08245200000000	0.00000000000000	
14.31662000000000	-63.20482500000000	737.39202000000000	47.41695800000000	0.12628000000000	0.00000000000000	0.09848000000000	-2.12972800000000	148.98757400000000	12.44394500000000	0.43992400000000	0.00000000000000	-0.07760800000000	0.00000000000000	21.57908900000000	0.00000000000000	0.00000000000000	10.98478700000000	0.00000000000000	
14.31827600000000	-63.62872500000000	732.04240100000004	46.77934400000000	0.12601700000000	0.00000000000000	0.09832300000000	-1.28506900000000	154.69200000000001	12.10121300000000	0.44152700000000	0.00000000000000	-0.07790800000000	0.00000000000000	21.46371200000000	0.00000000000000	0.00000000000000	10.86133400000000	0.00000000000000	
14.31994300000000	-64.05990100000000	726.58894699999996	46.12248600000000	0.12574600000000	0.00000000000000	0.09816100000000	-0.39106400000000	160.48025699999999	11.71886500000000	0.44297400000000	0.00000000000000	-0.07821300000000	0.00000000000000	21.34714000000000	0.00000000000000	0.00000000000000	10.70923500000000	0.00000000000000	
